<svg width="172" height="28" viewBox="0 0 172 28" fill="none" xmlns="http://www.w3.org/2000/svg">
<path fill-rule="evenodd" clip-rule="evenodd" d="M58.4017 16.1601C58.0763 16.4802 58.0356 16.6002 58.0356 17.1602L58.0367 17.1592V22.9586C58.0367 26.3189 59.7438 27.999 63.16 27.999H68.3657C68.9351 27.999 69.0571 27.959 69.3825 27.639L80.4435 17.5592C80.7689 17.2792 80.8096 17.1192 80.8096 16.5592V10.6398C80.8096 7.27952 79.1014 5.5994 75.6852 5.5994H71.1709C70.6422 5.5994 70.5202 5.6394 70.1948 5.95942L65.8442 9.9197C65.7222 10.0397 65.6002 10.0797 65.4375 10.0797H65.1121C64.7868 10.0797 64.5428 9.8397 64.5428 9.51967V0.56004C64.5428 0.240017 64.2581 0 63.9734 0H58.605C58.2797 0 58.0356 0.240017 58.0356 0.56004V10.6398C58.0356 10.9598 58.2797 11.1998 58.605 11.1998H62.0213C62.3059 11.1998 62.5906 11.4398 62.5906 11.7598V12.0799C62.5906 12.2399 62.55 12.3599 62.428 12.4799L58.4017 16.1601ZM65.1111 11.1998H73.7321C74.0167 11.1998 74.3014 11.4398 74.3014 11.7598V21.8395C74.3014 22.1596 74.0167 22.3996 73.7321 22.3996H65.1111C64.7858 22.3996 64.5418 22.1596 64.5418 21.8395V11.7598C64.5418 11.4398 64.7858 11.1998 65.1111 11.1998Z" fill="white"/>
<path fill-rule="evenodd" clip-rule="evenodd" d="M81.8233 17.0402V22.9596C81.8233 26.3199 83.5304 28 86.9466 28H92.559C93.1284 28 93.2504 27.96 93.5757 27.64L104.637 17.5603C104.962 17.2402 105.003 17.1202 105.003 16.5602V10.6408C105.003 7.28053 103.296 5.60041 99.8795 5.60041H94.2671C93.6978 5.60041 93.5757 5.64042 93.2504 5.96044L82.1893 16.0402C81.8639 16.3602 81.8233 16.4802 81.8233 17.0402ZM97.9264 22.3996H88.8987C88.6141 22.3996 88.3294 22.1596 88.3294 21.8396V11.7598C88.3294 11.4398 88.6141 11.1998 88.8987 11.1998H97.9264C98.2517 11.1998 98.4957 11.4398 98.4957 11.7598V21.8396C98.4957 22.1596 98.2517 22.3996 97.9264 22.3996Z" fill="white"/>
<path fill-rule="evenodd" clip-rule="evenodd" d="M106.019 22.9596V17.0402C106.019 16.4802 106.059 16.3602 106.385 16.0402L117.446 5.96044C117.771 5.64042 117.893 5.60041 118.462 5.60041H124.074C127.49 5.60041 129.198 7.28053 129.198 10.6408V16.5602C129.198 17.1202 129.158 17.2402 128.832 17.5603L117.771 27.64C117.446 27.96 117.324 28 116.754 28H111.143C107.727 28 106.019 26.3199 106.019 22.9596ZM113.095 22.3996H122.123C122.448 22.3996 122.692 22.1596 122.692 21.8396V11.7598C122.692 11.4398 122.448 11.1998 122.123 11.1998H113.095C112.81 11.1998 112.526 11.4398 112.526 11.7598V21.8396C112.526 22.1596 112.81 22.3996 113.095 22.3996Z" fill="white"/>
<path d="M131.312 22.9596L126.757 27.0799V27.0789C126.228 27.559 126.432 27.999 127.123 27.999H138.835C138.998 27.999 139.12 27.959 139.242 27.839L150.221 17.8393C150.425 17.6393 150.506 17.4393 150.506 17.1592V15.7591C150.506 15.3991 150.303 15.1991 149.937 15.1991H144.935C144.325 15.1991 144.081 15.3991 144.081 15.7991V21.8396C144.081 22.1596 143.797 22.3996 143.512 22.3996H132.776C132.044 22.3996 131.678 22.6396 131.312 22.9596Z" fill="white"/>
<path d="M130.824 15.8401C130.621 16.0402 130.539 16.2402 130.539 16.5202H130.538V17.8403C130.538 18.2003 130.742 18.4003 131.108 18.4003H136.151C136.761 18.4003 137.005 18.2003 137.005 17.8003V11.7599C137.005 11.4398 137.289 11.1998 137.574 11.1998H147.618C147.781 11.1998 147.903 11.1598 148.025 11.0398L151.97 6.87951C152.092 6.7595 152.214 6.71949 152.377 6.71949H152.702C153.027 6.71949 153.272 6.99951 153.272 7.27953V10.6398C153.272 10.9598 153.516 11.1998 153.841 11.1998H157.379C157.745 11.1998 157.949 11.3998 157.949 11.7198C157.949 11.9999 157.867 12.0799 157.704 12.2399L153.475 16.2002C153.353 16.3202 153.312 16.4402 153.312 16.6002V22.9596C153.312 26.3199 155.02 28 158.437 28H166.651C166.813 28 166.935 27.96 167.057 27.84L171.775 23.3597C172.182 22.9596 172.019 22.3996 171.368 22.3996H160.389C160.063 22.3996 159.819 22.1596 159.819 21.8396V11.7599C159.819 11.4398 160.063 11.1998 160.389 11.1998H166.651C166.813 11.1998 166.935 11.1598 167.057 11.0398L171.775 6.55948C172.182 6.15945 172.019 5.59942 171.368 5.59942H165.676C165.554 5.59942 165.432 5.63942 165.31 5.75943L160.877 9.83972C160.673 10.0397 160.511 10.0797 160.307 10.0797C159.982 10.0797 159.819 9.87972 159.819 9.51969V0.960087C159.819 0.640065 159.535 0.400048 158.437 0.400048H153.882C153.556 0.400048 153.312 0.640065 153.312 0.960087V5.60042H142.251C142.088 5.60042 141.966 5.64042 141.844 5.76043L130.824 15.8401Z" fill="white"/>
<path d="M22.8523 14.8231C22.5869 14.6461 22.2707 14.5571 21.9026 14.5571C21.5346 14.5571 21.2062 14.6461 20.9377 14.8231C20.6693 15.0002 20.4639 15.2562 20.3226 15.5902C20.1813 15.9242 20.1101 16.3313 20.1101 16.8113C20.1101 17.2913 20.1792 17.6944 20.3165 18.0214C20.4548 18.3484 20.6591 18.5984 20.9316 18.7724C21.2041 18.9464 21.5274 19.0364 21.9026 19.0434C22.2778 19.0364 22.596 18.9484 22.8573 18.7774C23.1186 18.6074 23.3169 18.3534 23.4511 18.0154C23.5853 17.6783 23.6565 17.2733 23.6636 16.8003C23.6565 16.3203 23.5853 15.9152 23.4511 15.5852C23.3169 15.2552 23.1166 15.0012 22.8523 14.8231Z" fill="#653DF5"/>
<path d="M31.1194 14.9271C30.8439 14.7641 30.4972 14.6821 30.0803 14.6821H28.8074V18.9174H30.0803C30.4972 18.9174 30.8439 18.8374 31.1194 18.6774C31.395 18.5174 31.6004 18.2814 31.7346 17.9684C31.8688 17.6553 31.9399 17.2623 31.9471 16.7893C31.9399 16.3302 31.8688 15.9462 31.7346 15.6362C31.6004 15.3272 31.395 15.0902 31.1194 14.9271Z" fill="#653DF5"/>
<path d="M45.618 5.59961H12.4439C11.8745 5.59961 11.7525 5.63961 11.4271 5.95963L0.366026 16.0393C0.0406695 16.3594 0 16.4794 0 17.0394V22.9598C0 26.3191 1.70812 27.9992 5.12436 27.9992H38.2985C38.8669 27.9992 38.9889 27.9592 39.3142 27.6392L50.3763 17.5595C50.7007 17.2394 50.7414 17.1194 50.7414 16.5594V10.64C50.7414 7.27973 49.0343 5.59961 45.618 5.59961ZM16.1489 19.7786C15.5297 20.2756 14.6909 20.5247 13.6294 20.5247C12.816 20.5247 12.1236 20.3787 11.5501 20.0866C10.9777 19.7946 10.5385 19.3706 10.2345 18.8135C9.93049 18.2575 9.78204 17.5925 9.78916 16.8214C9.78204 16.0353 9.92845 15.3613 10.2294 14.7973C10.5304 14.2342 10.9716 13.8062 11.5552 13.5142C12.1388 13.2221 12.8292 13.0761 13.6284 13.0761C14.3136 13.0761 14.9166 13.1871 15.4371 13.4102C15.9567 13.6332 16.3685 13.9562 16.6725 14.3802C16.9765 14.8043 17.1534 15.3123 17.2032 15.9033H15.0925C15.0081 15.5003 14.8362 15.1903 14.578 14.9753C14.3197 14.7593 13.9852 14.6482 13.5755 14.6412C13.2288 14.6482 12.9268 14.7333 12.6686 14.8973C12.4103 15.0603 12.212 15.3043 12.0748 15.6273C11.9365 15.9503 11.8684 16.3454 11.8684 16.8114C11.8684 17.2774 11.9355 17.6795 12.0697 17.9955C12.2039 18.3125 12.4022 18.5515 12.6635 18.7155C12.9248 18.8785 13.2288 18.9606 13.5755 18.9606C13.9924 18.9606 14.3299 18.8495 14.5882 18.6265C14.8464 18.4035 15.0213 18.0945 15.1128 17.6985H17.2236C17.1249 18.5885 16.766 19.2826 16.1468 19.7796L16.1489 19.7786ZM25.2649 18.8185C24.9681 19.3786 24.5349 19.8026 23.9655 20.0916C23.3962 20.3807 22.7089 20.5247 21.9026 20.5247C21.0963 20.5247 20.3968 20.3787 19.8234 20.0866C19.2509 19.7946 18.8117 19.3706 18.5077 18.8135C18.2037 18.2575 18.0552 17.5895 18.0624 16.8104C18.0552 16.0313 18.2017 15.3603 18.5026 14.7973C18.8036 14.2342 19.2418 13.8062 19.8183 13.5142C20.3948 13.2221 21.0892 13.0761 21.9026 13.0761C22.716 13.0761 23.386 13.2221 23.9554 13.5142C24.5248 13.8062 24.9589 14.2322 25.2599 14.7923C25.5608 15.3523 25.7143 16.0253 25.7215 16.8114C25.7143 17.5905 25.5628 18.2595 25.2649 18.8195V18.8185ZM33.5747 18.8025C33.2951 19.3316 32.8712 19.7296 32.3018 19.9966C31.7324 20.2646 31.0237 20.3987 30.1748 20.3987H26.8338V13.2001H30.1748C31.0166 13.2001 31.7212 13.3362 32.2906 13.6072C32.86 13.8782 33.286 14.2802 33.5686 14.8123C33.8513 15.3443 33.9967 16.0063 34.0038 16.7994C33.9967 17.6065 33.8533 18.2735 33.5747 18.8025ZM40.9512 20.3987H35.1181V13.2001H40.8983V14.6502H36.9849V16.0173H40.3472V17.4044H36.9849V18.9486H40.9512V20.3987Z" fill="#653DF5"/>
</svg>